
<svg width="800" height="600" xmlns="http://www.w3.org/2000/svg">
  <rect width="800" height="600" fill="#1e3a8a" />
  <g fill="#ffffff"><circle cx="74" cy="543" r="6" opacity="0.5" /><circle cx="387" cy="395" r="2" opacity="0.5" /><circle cx="257" cy="418" r="4" opacity="0.5" /><circle cx="64" cy="70" r="5" opacity="0.5" /><circle cx="617" cy="179" r="5" opacity="0.5" /><circle cx="166" cy="148" r="4" opacity="0.5" /><circle cx="78" cy="346" r="4" opacity="0.5" /><circle cx="761" cy="361" r="4" opacity="0.5" /><circle cx="409" cy="567" r="2" opacity="0.5" /><circle cx="292" cy="568" r="4" opacity="0.5" /><circle cx="58" cy="490" r="4" opacity="0.5" /><circle cx="624" cy="556" r="3" opacity="0.5" /><circle cx="579" cy="32" r="6" opacity="0.5" /><circle cx="107" cy="333" r="6" opacity="0.5" /><circle cx="770" cy="546" r="6" opacity="0.5" /><circle cx="548" cy="226" r="5" opacity="0.5" /><circle cx="259" cy="200" r="3" opacity="0.5" /><circle cx="377" cy="365" r="4" opacity="0.5" /><circle cx="483" cy="549" r="4" opacity="0.5" /><circle cx="679" cy="184" r="2" opacity="0.5" /><circle cx="305" cy="69" r="5" opacity="0.5" /><circle cx="261" cy="416" r="6" opacity="0.5" /><circle cx="44" cy="406" r="6" opacity="0.5" /><circle cx="483" cy="292" r="2" opacity="0.5" /><circle cx="495" cy="120" r="4" opacity="0.5" /><circle cx="348" cy="80" r="4" opacity="0.5" /><circle cx="42" cy="130" r="3" opacity="0.5" /><circle cx="698" cy="24" r="3" opacity="0.5" /><circle cx="381" cy="10" r="4" opacity="0.5" /><circle cx="649" cy="568" r="3" opacity="0.5" /><circle cx="93" cy="377" r="6" opacity="0.5" /><circle cx="262" cy="354" r="3" opacity="0.5" /><circle cx="415" cy="451" r="3" opacity="0.5" /><circle cx="70" cy="330" r="4" opacity="0.5" /><circle cx="94" cy="21" r="2" opacity="0.5" /><circle cx="173" cy="303" r="2" opacity="0.5" /><circle cx="176" cy="16" r="3" opacity="0.5" /><circle cx="389" cy="118" r="6" opacity="0.5" /><circle cx="347" cy="182" r="6" opacity="0.5" /><circle cx="145" cy="220" r="6" opacity="0.5" /><circle cx="741" cy="33" r="4" opacity="0.5" /><circle cx="396" cy="50" r="5" opacity="0.5" /><circle cx="720" cy="447" r="4" opacity="0.5" /><circle cx="610" cy="521" r="4" opacity="0.5" /><circle cx="324" cy="190" r="2" opacity="0.5" /><circle cx="29" cy="562" r="6" opacity="0.5" /><circle cx="554" cy="292" r="5" opacity="0.5" /><circle cx="391" cy="562" r="5" opacity="0.5" /><circle cx="425" cy="34" r="4" opacity="0.5" /><circle cx="223" cy="139" r="2" opacity="0.5" /><circle cx="262" cy="69" r="2" opacity="0.5" /><circle cx="600" cy="554" r="6" opacity="0.5" /><circle cx="74" cy="300" r="6" opacity="0.5" /><circle cx="74" cy="84" r="6" opacity="0.5" /><circle cx="268" cy="530" r="5" opacity="0.5" /><circle cx="32" cy="92" r="4" opacity="0.5" /><circle cx="323" cy="238" r="5" opacity="0.5" /><circle cx="572" cy="173" r="4" opacity="0.5" /><circle cx="520" cy="573" r="2" opacity="0.5" /><circle cx="392" cy="342" r="6" opacity="0.5" /><circle cx="286" cy="563" r="6" opacity="0.5" /><circle cx="190" cy="172" r="4" opacity="0.5" /><circle cx="341" cy="177" r="5" opacity="0.5" /><circle cx="675" cy="570" r="5" opacity="0.5" /><circle cx="443" cy="525" r="6" opacity="0.5" /><circle cx="1" cy="194" r="2" opacity="0.5" /><circle cx="527" cy="386" r="4" opacity="0.5" /><circle cx="716" cy="390" r="3" opacity="0.5" /><circle cx="85" cy="589" r="2" opacity="0.5" /><circle cx="411" cy="147" r="4" opacity="0.5" /><circle cx="318" cy="407" r="6" opacity="0.5" /><circle cx="653" cy="156" r="5" opacity="0.5" /><circle cx="450" cy="569" r="4" opacity="0.5" /><circle cx="642" cy="407" r="5" opacity="0.5" /><circle cx="660" cy="71" r="4" opacity="0.5" /><circle cx="314" cy="16" r="2" opacity="0.5" /><circle cx="485" cy="265" r="6" opacity="0.5" /><circle cx="254" cy="433" r="4" opacity="0.5" /><circle cx="85" cy="541" r="6" opacity="0.5" /><circle cx="792" cy="16" r="3" opacity="0.5" /><circle cx="622" cy="159" r="2" opacity="0.5" /><circle cx="253" cy="555" r="3" opacity="0.5" /><circle cx="0" cy="418" r="2" opacity="0.5" /><circle cx="560" cy="527" r="3" opacity="0.5" /><circle cx="308" cy="176" r="3" opacity="0.5" /><circle cx="125" cy="467" r="3" opacity="0.5" /><circle cx="202" cy="270" r="6" opacity="0.5" /><circle cx="456" cy="384" r="5" opacity="0.5" /><circle cx="66" cy="8" r="3" opacity="0.5" /><circle cx="102" cy="397" r="2" opacity="0.5" /><circle cx="151" cy="184" r="4" opacity="0.5" /><circle cx="224" cy="457" r="6" opacity="0.5" /><circle cx="286" cy="590" r="4" opacity="0.5" /><circle cx="117" cy="536" r="6" opacity="0.5" /><circle cx="387" cy="119" r="4" opacity="0.5" /><circle cx="532" cy="13" r="5" opacity="0.5" /><circle cx="205" cy="210" r="4" opacity="0.5" /><circle cx="118" cy="477" r="3" opacity="0.5" /><circle cx="236" cy="212" r="4" opacity="0.5" /><circle cx="257" cy="215" r="2" opacity="0.5" /></g>
  <text x="400" y="300" font-family="Arial" font-size="20" text-anchor="middle" fill="rgba(255,255,255,0.5)">dots-blue</text>
</svg>