
<svg width="800" height="600" xmlns="http://www.w3.org/2000/svg">
  <rect width="800" height="600" fill="#111827" />
  <g fill="#9ca3af"><circle cx="153" cy="582" r="4" opacity="0.5" /><circle cx="140" cy="553" r="6" opacity="0.5" /><circle cx="394" cy="526" r="5" opacity="0.5" /><circle cx="255" cy="459" r="6" opacity="0.5" /><circle cx="793" cy="32" r="2" opacity="0.5" /><circle cx="743" cy="566" r="2" opacity="0.5" /><circle cx="387" cy="400" r="2" opacity="0.5" /><circle cx="181" cy="9" r="5" opacity="0.5" /><circle cx="456" cy="7" r="6" opacity="0.5" /><circle cx="303" cy="69" r="3" opacity="0.5" /><circle cx="406" cy="347" r="2" opacity="0.5" /><circle cx="308" cy="184" r="5" opacity="0.5" /><circle cx="782" cy="434" r="6" opacity="0.5" /><circle cx="456" cy="178" r="6" opacity="0.5" /><circle cx="655" cy="87" r="5" opacity="0.5" /><circle cx="181" cy="200" r="6" opacity="0.5" /><circle cx="415" cy="305" r="6" opacity="0.5" /><circle cx="572" cy="358" r="4" opacity="0.5" /><circle cx="398" cy="38" r="6" opacity="0.5" /><circle cx="204" cy="196" r="2" opacity="0.5" /><circle cx="661" cy="378" r="5" opacity="0.5" /><circle cx="364" cy="466" r="3" opacity="0.5" /><circle cx="76" cy="549" r="5" opacity="0.5" /><circle cx="31" cy="164" r="6" opacity="0.5" /><circle cx="191" cy="386" r="6" opacity="0.5" /><circle cx="533" cy="402" r="6" opacity="0.5" /><circle cx="25" cy="380" r="2" opacity="0.5" /><circle cx="548" cy="389" r="3" opacity="0.5" /><circle cx="226" cy="374" r="5" opacity="0.5" /><circle cx="494" cy="546" r="6" opacity="0.5" /><circle cx="562" cy="165" r="2" opacity="0.5" /><circle cx="144" cy="100" r="2" opacity="0.5" /><circle cx="5" cy="201" r="5" opacity="0.5" /><circle cx="199" cy="544" r="5" opacity="0.5" /><circle cx="441" cy="442" r="3" opacity="0.5" /><circle cx="221" cy="135" r="3" opacity="0.5" /><circle cx="308" cy="364" r="6" opacity="0.5" /><circle cx="344" cy="327" r="3" opacity="0.5" /><circle cx="132" cy="484" r="5" opacity="0.5" /><circle cx="518" cy="25" r="6" opacity="0.5" /><circle cx="630" cy="76" r="6" opacity="0.5" /><circle cx="456" cy="88" r="3" opacity="0.5" /><circle cx="107" cy="43" r="4" opacity="0.5" /><circle cx="20" cy="365" r="2" opacity="0.5" /><circle cx="391" cy="555" r="6" opacity="0.5" /><circle cx="456" cy="144" r="6" opacity="0.5" /><circle cx="635" cy="567" r="2" opacity="0.5" /><circle cx="444" cy="507" r="5" opacity="0.5" /><circle cx="503" cy="227" r="3" opacity="0.5" /><circle cx="560" cy="55" r="4" opacity="0.5" /><circle cx="435" cy="1" r="3" opacity="0.5" /><circle cx="794" cy="278" r="4" opacity="0.5" /><circle cx="379" cy="353" r="4" opacity="0.5" /><circle cx="88" cy="307" r="6" opacity="0.5" /><circle cx="537" cy="487" r="6" opacity="0.5" /><circle cx="737" cy="435" r="3" opacity="0.5" /><circle cx="627" cy="338" r="2" opacity="0.5" /><circle cx="639" cy="428" r="4" opacity="0.5" /><circle cx="196" cy="156" r="6" opacity="0.5" /><circle cx="2" cy="278" r="6" opacity="0.5" /><circle cx="253" cy="563" r="4" opacity="0.5" /><circle cx="190" cy="70" r="2" opacity="0.5" /><circle cx="104" cy="567" r="2" opacity="0.5" /><circle cx="758" cy="148" r="3" opacity="0.5" /><circle cx="418" cy="144" r="2" opacity="0.5" /><circle cx="145" cy="115" r="5" opacity="0.5" /><circle cx="91" cy="376" r="4" opacity="0.5" /><circle cx="533" cy="334" r="4" opacity="0.5" /><circle cx="647" cy="286" r="4" opacity="0.5" /><circle cx="188" cy="405" r="6" opacity="0.5" /><circle cx="274" cy="548" r="2" opacity="0.5" /><circle cx="747" cy="492" r="2" opacity="0.5" /><circle cx="48" cy="447" r="2" opacity="0.5" /><circle cx="759" cy="307" r="2" opacity="0.5" /><circle cx="287" cy="112" r="3" opacity="0.5" /><circle cx="369" cy="110" r="2" opacity="0.5" /><circle cx="544" cy="424" r="3" opacity="0.5" /><circle cx="124" cy="58" r="3" opacity="0.5" /><circle cx="473" cy="135" r="2" opacity="0.5" /><circle cx="220" cy="450" r="4" opacity="0.5" /><circle cx="200" cy="36" r="3" opacity="0.5" /><circle cx="188" cy="171" r="5" opacity="0.5" /><circle cx="226" cy="443" r="2" opacity="0.5" /><circle cx="14" cy="219" r="2" opacity="0.5" /><circle cx="167" cy="275" r="5" opacity="0.5" /><circle cx="624" cy="480" r="4" opacity="0.5" /><circle cx="247" cy="21" r="2" opacity="0.5" /><circle cx="18" cy="99" r="5" opacity="0.5" /><circle cx="169" cy="274" r="4" opacity="0.5" /><circle cx="599" cy="236" r="3" opacity="0.5" /><circle cx="40" cy="524" r="5" opacity="0.5" /><circle cx="525" cy="528" r="2" opacity="0.5" /><circle cx="787" cy="451" r="3" opacity="0.5" /><circle cx="97" cy="179" r="4" opacity="0.5" /><circle cx="139" cy="465" r="2" opacity="0.5" /><circle cx="656" cy="337" r="4" opacity="0.5" /><circle cx="142" cy="109" r="6" opacity="0.5" /><circle cx="29" cy="576" r="4" opacity="0.5" /><circle cx="332" cy="370" r="4" opacity="0.5" /><circle cx="264" cy="273" r="5" opacity="0.5" /></g>
  <text x="400" y="300" font-family="Arial" font-size="20" text-anchor="middle" fill="rgba(255,255,255,0.5)">dots-dark</text>
</svg>