
<svg width="800" height="600" xmlns="http://www.w3.org/2000/svg">
  <rect width="800" height="600" fill="#065f46" />
  <g stroke="#ffffff" stroke-width="1" opacity="0.3"><line x1="0" y1="0" x2="800" y2="0" /><line x1="0" y1="30" x2="800" y2="30" /><line x1="0" y1="60" x2="800" y2="60" /><line x1="0" y1="90" x2="800" y2="90" /><line x1="0" y1="120" x2="800" y2="120" /><line x1="0" y1="150" x2="800" y2="150" /><line x1="0" y1="180" x2="800" y2="180" /><line x1="0" y1="210" x2="800" y2="210" /><line x1="0" y1="240" x2="800" y2="240" /><line x1="0" y1="270" x2="800" y2="270" /><line x1="0" y1="300" x2="800" y2="300" /><line x1="0" y1="330" x2="800" y2="330" /><line x1="0" y1="360" x2="800" y2="360" /><line x1="0" y1="390" x2="800" y2="390" /><line x1="0" y1="420" x2="800" y2="420" /><line x1="0" y1="450" x2="800" y2="450" /><line x1="0" y1="480" x2="800" y2="480" /><line x1="0" y1="510" x2="800" y2="510" /><line x1="0" y1="540" x2="800" y2="540" /><line x1="0" y1="570" x2="800" y2="570" /><line x1="0" y1="0" x2="0" y2="600" /><line x1="40" y1="0" x2="40" y2="600" /><line x1="80" y1="0" x2="80" y2="600" /><line x1="120" y1="0" x2="120" y2="600" /><line x1="160" y1="0" x2="160" y2="600" /><line x1="200" y1="0" x2="200" y2="600" /><line x1="240" y1="0" x2="240" y2="600" /><line x1="280" y1="0" x2="280" y2="600" /><line x1="320" y1="0" x2="320" y2="600" /><line x1="360" y1="0" x2="360" y2="600" /><line x1="400" y1="0" x2="400" y2="600" /><line x1="440" y1="0" x2="440" y2="600" /><line x1="480" y1="0" x2="480" y2="600" /><line x1="520" y1="0" x2="520" y2="600" /><line x1="560" y1="0" x2="560" y2="600" /><line x1="600" y1="0" x2="600" y2="600" /><line x1="640" y1="0" x2="640" y2="600" /><line x1="680" y1="0" x2="680" y2="600" /><line x1="720" y1="0" x2="720" y2="600" /><line x1="760" y1="0" x2="760" y2="600" /></g>
  <text x="400" y="300" font-family="Arial" font-size="20" text-anchor="middle" fill="rgba(255,255,255,0.5)">lines-green</text>
</svg>