
<svg width="800" height="600" xmlns="http://www.w3.org/2000/svg">
  <rect width="800" height="600" fill="#5b21b6" />
  <g stroke="#ffffff" stroke-width="2" fill="none" opacity="0.2"><path d="M0 20 Q 200 50, 400 20 T 800 20" /><path d="M0 80 Q 200 110, 400 80 T 800 80" /><path d="M0 140 Q 200 170, 400 140 T 800 140" /><path d="M0 200 Q 200 230, 400 200 T 800 200" /><path d="M0 260 Q 200 290, 400 260 T 800 260" /><path d="M0 320 Q 200 350, 400 320 T 800 320" /><path d="M0 380 Q 200 410, 400 380 T 800 380" /><path d="M0 440 Q 200 470, 400 440 T 800 440" /><path d="M0 500 Q 200 530, 400 500 T 800 500" /><path d="M0 560 Q 200 590, 400 560 T 800 560" /></g>
  <text x="400" y="300" font-family="Arial" font-size="20" text-anchor="middle" fill="rgba(255,255,255,0.5)">waves-purple</text>
</svg>